<svg width="1120" height="640" viewBox="0 0 1120 640" fill="none" xmlns="http://www.w3.org/2000/svg" role="img" aria-labelledby="title desc">
  <title id="title">Design Knowledge Engine demo screenshot</title>
  <desc id="desc">A mock interface showing image input, visual analysis, structured tags, Markdown cards, and a knowledge base.</desc>
  <rect width="1120" height="640" rx="18" fill="#F7F4EE"/>
  <rect x="40" y="40" width="1040" height="560" rx="14" fill="#FFFFFF" stroke="#DDD7CC"/>
  <text x="72" y="94" fill="#222222" font-family="Arial, sans-serif" font-size="28" font-weight="700">Design Knowledge Engine</text>
  <text x="72" y="124" fill="#666666" font-family="Arial, sans-serif" font-size="15">Image collection to structured Markdown knowledge base</text>

  <rect x="72" y="164" width="180" height="140" rx="10" fill="#FAFAFA" stroke="#D6D6D6"/>
  <text x="96" y="196" fill="#222222" font-family="Arial, sans-serif" font-size="16" font-weight="700">Input Images</text>
  <rect x="96" y="218" width="58" height="52" rx="6" fill="#E9EFE8"/>
  <rect x="168" y="218" width="58" height="52" rx="6" fill="#F2E2E6"/>
  <text x="96" y="288" fill="#777777" font-family="Arial, sans-serif" font-size="13">sample_data/</text>

  <path d="M272 234H328" stroke="#9A8F80" stroke-width="3"/>
  <path d="M328 234L316 226V242L328 234Z" fill="#9A8F80"/>

  <rect x="348" y="164" width="180" height="140" rx="10" fill="#FAFAFA" stroke="#D6D6D6"/>
  <text x="376" y="196" fill="#222222" font-family="Arial, sans-serif" font-size="16" font-weight="700">Visual Analysis</text>
  <text x="376" y="228" fill="#666666" font-family="Arial, sans-serif" font-size="13">summary</text>
  <text x="376" y="252" fill="#666666" font-family="Arial, sans-serif" font-size="13">mood</text>
  <text x="376" y="276" fill="#666666" font-family="Arial, sans-serif" font-size="13">elements</text>

  <path d="M548 234H604" stroke="#9A8F80" stroke-width="3"/>
  <path d="M604 234L592 226V242L604 234Z" fill="#9A8F80"/>

  <rect x="624" y="164" width="180" height="140" rx="10" fill="#FAFAFA" stroke="#D6D6D6"/>
  <text x="652" y="196" fill="#222222" font-family="Arial, sans-serif" font-size="16" font-weight="700">Structured Tags</text>
  <rect x="652" y="222" width="72" height="24" rx="12" fill="#E9EFE8"/>
  <text x="668" y="239" fill="#425041" font-family="Arial, sans-serif" font-size="12">Garden</text>
  <rect x="732" y="222" width="62" height="24" rx="12" fill="#F2E2E6"/>
  <text x="748" y="239" fill="#664B55" font-family="Arial, sans-serif" font-size="12">Floral</text>
  <rect x="652" y="258" width="80" height="24" rx="12" fill="#EFE8D9"/>
  <text x="668" y="275" fill="#5D513E" font-family="Arial, sans-serif" font-size="12">Pastel</text>

  <path d="M824 234H880" stroke="#9A8F80" stroke-width="3"/>
  <path d="M880 234L868 226V242L880 234Z" fill="#9A8F80"/>

  <rect x="900" y="164" width="148" height="140" rx="10" fill="#FAFAFA" stroke="#D6D6D6"/>
  <text x="924" y="196" fill="#222222" font-family="Arial, sans-serif" font-size="16" font-weight="700">Markdown</text>
  <text x="924" y="224" fill="#777777" font-family="Arial, sans-serif" font-size="13"># Garden Dress</text>
  <text x="924" y="248" fill="#777777" font-family="Arial, sans-serif" font-size="13">## Tags</text>
  <text x="924" y="272" fill="#777777" font-family="Arial, sans-serif" font-size="13">## Mood</text>

  <rect x="72" y="360" width="976" height="170" rx="10" fill="#FAFAFA" stroke="#D6D6D6"/>
  <text x="96" y="396" fill="#222222" font-family="Arial, sans-serif" font-size="18" font-weight="700">Knowledge Base Output</text>
  <text x="96" y="430" fill="#666666" font-family="Arial, sans-serif" font-size="14">sample_output/garden_dress.md</text>
  <line x1="96" y1="452" x2="1024" y2="452" stroke="#E2DED6"/>
  <text x="96" y="484" fill="#222222" font-family="Arial, sans-serif" font-size="15" font-weight="700">Garden Dress</text>
  <text x="96" y="512" fill="#666666" font-family="Arial, sans-serif" font-size="14">Romantic garden-inspired dress with soft pastel colors and floral details.</text>
</svg>
